<svg version="1.0" xmlns="http://www.w3.org/2000/svg"
 viewBox="0 0 1350 240">
<metadata>
</metadata>
<g transform="translate(0.000000,650.000000) scale(0.1,-0.1)"
fill="currentColor">
<path d="M3723 6447 c-35 -13 -90 -68 -104 -104 -9 -25 -38 -30 -71 -12 -31
17 -69 -5 -107 -61 -26 -37 -32 -53 -23 -62 8 -8 20 -3 47 21 34 30 37 31 65
16 43 -22 131 -19 179 6 73 38 120 134 92 188 -13 23 -30 25 -78 8z m33 -78
c9 -15 -24 -45 -58 -53 -37 -8 -45 10 -17 40 23 25 63 32 75 13z"/>
<path d="M5844 6445 c-31 -14 -94 -83 -94 -103 0 -20 -22 -24 -61 -12 -51 17
-73 5 -118 -60 -43 -63 -33 -81 21 -38 38 30 42 31 72 18 83 -35 164 -19 230
46 33 34 46 63 46 108 0 55 -32 69 -96 41z m30 -61 c38 -15 -1 -64 -51 -64
-39 0 -41 8 -8 44 25 27 33 30 59 20z"/>
<path d="M7252 6442 c-28 -9 -78 -56 -98 -93 -14 -28 -17 -29 -75 -27 -60 3
-62 2 -95 -37 -18 -22 -34 -50 -34 -62 0 -29 4 -29 44 2 31 24 33 24 81 9 98
-30 191 4 244 90 27 43 28 102 2 116 -22 11 -34 11 -69 2z m28 -87 c0 -19 -8
-28 -36 -40 -56 -23 -73 -1 -32 42 30 32 68 31 68 -2z"/>
<path d="M3130 6423 c-36 -8 -99 -21 -140 -30 -173 -35 -230 -48 -375 -83 -27
-7 -66 -16 -85 -20 -34 -7 -73 -17 -195 -47 -33 -8 -85 -21 -115 -28 -30 -7
-84 -21 -120 -31 -36 -9 -90 -23 -120 -31 -124 -32 -254 -69 -315 -88 -22 -6
-67 -20 -100 -29 -33 -10 -75 -24 -93 -32 -18 -8 -39 -14 -47 -14 -7 0 -26 -6
-42 -14 -15 -8 -48 -23 -73 -35 -96 -43 -224 -172 -186 -187 7 -3 33 8 57 24
48 31 160 80 256 111 33 12 72 25 85 30 12 4 50 16 83 26 33 9 78 23 100 30
22 7 69 20 105 30 36 9 88 23 115 30 28 8 79 21 115 30 36 9 88 23 116 31 28
8 60 14 71 14 11 0 39 6 64 14 24 7 80 21 124 31 44 9 103 23 130 30 28 7 84
20 125 30 41 9 102 22 135 30 33 7 94 21 135 30 41 9 98 23 126 31 28 8 60 14
70 14 20 0 114 91 114 110 0 13 -40 11 -120 -7z"/>
<path d="M5220 6357 c-112 -50 -274 -125 -379 -175 -80 -37 -175 -142 -130
-142 6 0 59 23 118 51 111 54 179 85 296 139 44 20 84 47 107 73 54 60 49 82
-12 54z"/>
<path d="M968 6230 c-20 -17 -46 -46 -58 -65 -25 -40 -18 -65 11 -39 15 13 30
16 75 11 31 -3 59 -9 62 -12 12 -11 -15 -40 -44 -47 -52 -12 -108 -36 -112
-47 -6 -18 124 -14 164 5 67 32 155 142 141 177 -5 14 -126 47 -174 47 -17 0
-43 -12 -65 -30z"/>
<path d="M6490 6210 c-13 -39 -12 -41 24 -95 40 -60 65 -125 75 -194 10 -72
26 -48 29 44 2 68 -2 98 -18 143 -22 60 -67 133 -86 139 -6 2 -17 -14 -24 -37z"/>
<path d="M4344 6226 c-38 -17 -98 -91 -90 -111 4 -12 10 -13 30 -4 27 13 137
1 137 -15 0 -5 -21 -18 -48 -28 -128 -52 -148 -74 -55 -65 31 3 74 11 95 17
42 12 116 81 141 132 17 32 17 33 -9 56 -18 15 -39 22 -69 22 -24 0 -56 2 -72
5 -16 3 -43 -1 -60 -9z"/>
<path d="M3962 6145 c-16 -36 -15 -42 12 -78 37 -50 62 -107 76 -174 24 -118
59 -95 46 30 -7 66 -19 109 -48 172 -37 80 -65 96 -86 50z"/>
<path d="M5335 6138 c-40 -109 -44 -155 -20 -198 8 -14 14 -38 15 -53 0 -16 6
-56 14 -90 16 -67 35 -164 46 -237 4 -25 12 -74 19 -110 66 -350 71 -389 53
-422 -26 -46 -139 -47 -156 -2 -10 27 -33 14 -50 -29 -21 -57 -20 -93 4 -124
47 -60 3 -135 -135 -226 -93 -62 -134 -72 -287 -70 -76 1 -140 -2 -143 -6 -15
-25 119 -89 242 -116 102 -23 165 4 273 114 62 63 109 139 127 206 7 22 22 36
59 55 110 54 145 153 125 348 -7 64 -19 151 -26 192 -7 41 -21 120 -30 175 -9
55 -22 134 -30 175 -7 41 -18 101 -24 134 -6 32 -7 66 -2 75 23 44 20 78 -9
118 -16 21 -32 51 -35 66 -8 32 -23 44 -30 25z"/>
<path d="M3214 6119 c-29 -47 -42 -330 -24 -511 13 -128 18 -150 30 -143 6 4
10 75 10 170 0 90 4 166 9 169 11 7 21 -17 21 -52 0 -15 6 -58 14 -97 8 -38
22 -106 30 -150 8 -44 22 -118 30 -165 22 -119 21 -155 -6 -174 -35 -25 -100
-20 -134 9 -16 14 -32 25 -35 25 -17 0 -42 -45 -47 -85 -4 -39 -1 -50 20 -73
45 -47 57 -80 44 -121 -15 -50 -117 -149 -194 -188 -54 -29 -72 -33 -136 -33
-73 0 -74 1 -113 40 -35 34 -41 47 -46 96 -6 59 -18 81 -36 70 -14 -9 -14 -58
1 -132 12 -62 60 -147 100 -175 60 -42 164 -53 233 -24 98 42 234 227 251 342
7 55 27 83 59 83 28 0 78 54 99 108 20 53 21 149 1 267 -8 50 -22 133 -30 185
-9 52 -22 124 -30 160 -9 36 -15 74 -15 85 0 18 -12 77 -42 205 -6 25 -13 61
-17 80 -7 36 -33 52 -47 29z"/>
<path d="M5636 6114 c-3 -9 -6 -32 -6 -52 0 -20 -5 -57 -11 -82 -7 -32 -7 -64
1 -110 6 -36 18 -105 26 -155 9 -49 22 -121 30 -160 8 -38 14 -80 14 -93 0
-13 6 -51 14 -85 16 -71 45 -296 49 -376 1 -33 7 -56 14 -59 47 -15 47 269 1
588 -6 41 -12 91 -14 110 -4 33 -18 108 -49 265 -7 39 -16 94 -20 123 -10 87
-33 128 -49 86z"/>
<path d="M3534 6073 c-13 -87 -9 -236 8 -308 10 -38 24 -108 33 -155 9 -47 23
-114 30 -150 26 -128 44 -246 50 -320 7 -94 22 -153 38 -147 20 6 22 300 2
442 -25 183 -55 353 -90 502 -8 34 -15 74 -15 91 0 41 -19 92 -35 92 -9 0 -16
-18 -21 -47z"/>
<path d="M7061 6072 c-25 -47 -14 -188 25 -328 8 -28 14 -59 14 -69 0 -10 6
-41 14 -69 8 -28 22 -85 30 -126 9 -41 22 -106 30 -145 8 -38 17 -97 20 -130
8 -82 24 -135 41 -135 21 0 21 232 -1 337 -32 161 -46 229 -57 268 -5 22 -13
60 -17 85 -4 25 -12 65 -18 90 -20 84 -42 185 -44 209 -4 31 -24 38 -37 13z"/>
<path d="M5124 5975 c-4 -8 -4 -26 0 -38 3 -14 -1 -32 -9 -43 -15 -19 -16 -18
-35 5 -11 13 -20 32 -20 43 0 34 -25 13 -28 -24 -4 -46 -45 -87 -70 -72 -11 7
-18 27 -20 53 -2 27 -8 41 -15 38 -16 -5 -38 -87 -32 -118 14 -63 75 -87 125
-49 19 14 35 18 66 13 36 -5 43 -2 62 22 32 40 37 88 17 140 -17 46 -31 56
-41 30z"/>
<path d="M2967 5953 c-4 -4 -5 -20 -2 -37 3 -17 1 -37 -4 -45 -14 -22 -48 -4
-55 29 -9 46 -36 39 -36 -9 0 -31 -5 -42 -27 -56 -37 -24 -57 -9 -61 44 -2 27
-8 41 -15 38 -27 -9 -36 -130 -11 -165 18 -26 84 -31 104 -7 8 9 30 15 59 15
58 0 90 29 98 87 8 59 -26 130 -50 106z"/>
<path d="M12466 5849 c-25 -28 -46 -61 -46 -72 0 -16 3 -18 12 -9 15 15 154
16 163 2 7 -11 -51 -50 -74 -50 -24 0 -101 -41 -95 -51 8 -13 50 -11 124 7 73
17 110 46 162 128 31 47 31 49 13 62 -29 22 -84 34 -152 34 -61 0 -61 0 -107
-51z"/>
<path d="M6019 5798 c-1 -7 -1 -49 1 -93 1 -63 6 -84 21 -101 10 -11 19 -25
19 -32 0 -17 -45 -56 -148 -128 -88 -62 -104 -84 -62 -84 37 0 187 98 238 156
49 55 51 56 90 49 35 -6 42 -4 52 15 32 59 -21 168 -100 209 -45 23 -109 28
-111 9z m87 -113 c10 -24 -5 -36 -27 -24 -16 8 -18 13 -8 25 15 18 28 18 35
-1z m89 -35 c0 -7 -6 -15 -12 -17 -8 -3 -13 4 -13 17 0 13 5 20 13 18 6 -3 12
-11 12 -18z"/>
<path d="M6668 5783 c-4 -39 -43 -45 -52 -9 -9 36 -19 32 -41 -16 -16 -34 -25
-43 -45 -43 -21 0 -26 5 -30 38 -3 21 -9 39 -13 40 -11 3 -37 -70 -37 -103 0
-62 65 -91 119 -54 13 10 42 18 64 19 57 3 79 32 75 99 -2 38 -7 52 -20 54
-12 2 -17 -5 -20 -25z"/>
<path d="M4524 5671 c-50 -23 -97 -81 -92 -113 3 -22 8 -23 113 -30 61 -3 126
-10 145 -15 53 -13 44 -36 -20 -51 -146 -35 -226 -66 -271 -104 -28 -25 -89
-102 -89 -113 0 -13 -41 -59 -68 -77 -19 -12 -47 -18 -90 -18 l-62 0 -32 45
c-39 55 -62 58 -83 9 -22 -52 -19 -87 12 -141 37 -66 39 -152 4 -203 -74 -106
-250 -217 -516 -325 -16 -7 -47 -20 -68 -29 -21 -9 -44 -16 -52 -16 -8 0 -29
-6 -47 -14 -257 -108 -881 -189 -1203 -157 -337 34 -350 37 -563 97 -86 24
-180 60 -277 104 -33 15 -67 31 -75 34 -8 4 -24 12 -35 19 -11 7 -43 25 -70
41 -71 42 -188 133 -274 216 -72 68 -91 80 -91 60 0 -14 22 -61 49 -105 14
-22 30 -48 36 -57 71 -118 174 -233 256 -288 88 -59 243 -130 344 -160 17 -5
62 -18 100 -30 39 -11 94 -25 123 -30 29 -5 56 -12 61 -15 5 -3 43 -10 83 -15
40 -5 105 -15 143 -20 114 -18 607 -14 733 5 269 40 416 74 617 141 153 51
189 65 200 75 5 5 16 9 25 9 26 0 237 111 310 162 147 104 251 240 274 359 9
53 32 79 68 79 38 0 89 31 127 77 29 35 31 36 53 19 91 -65 159 -88 221 -72
70 17 106 195 51 257 -27 30 -16 44 49 61 34 9 111 24 170 34 102 16 113 16
210 0 56 -9 126 -24 156 -34 l53 -17 44 49 c51 56 54 72 17 78 -59 11 -194 47
-297 80 -32 10 -120 49 -195 85 -155 76 -208 87 -277 54z m-48 -432 c30 -11
67 -60 55 -72 -12 -12 -94 19 -117 44 -9 10 -14 25 -10 34 6 16 16 16 72 -6z"/>
<path d="M1455 5630 c-35 -67 -12 -188 40 -212 56 -25 115 34 115 114 0 50
-14 55 -40 13 -22 -36 -28 -39 -54 -29 -19 7 -40 78 -32 110 9 35 -11 38 -29
4z"/>
<path d="M3850 5620 c-11 -21 -20 -55 -20 -74 0 -30 6 -39 46 -65 65 -45 80
-41 109 25 14 31 25 62 25 69 0 17 -104 85 -130 85 -5 0 -19 -18 -30 -40z"/>
<path d="M13061 5603 c-14 -49 -14 -78 0 -164 13 -74 23 -85 40 -43 5 15 13
24 17 20 18 -18 128 -230 175 -339 40 -89 8 -113 -108 -83 -41 10 -53 19 -67
47 -10 19 -22 34 -28 34 -5 0 -22 -25 -37 -55 l-28 -55 -47 1 c-26 0 -51 3
-55 7 -4 4 -6 25 -5 47 4 53 -15 52 -57 -3 -45 -60 -77 -77 -149 -77 -34 0
-63 4 -66 9 -3 5 -1 23 5 41 18 49 -5 56 -52 17 -48 -41 -171 -77 -329 -97
-36 -4 -96 -13 -135 -19 -431 -66 -1102 -115 -1780 -131 -382 -9 -1268 3
-1420 20 -44 5 -123 9 -175 9 -52 1 -149 8 -215 16 -65 8 -142 15 -170 15 -55
0 -297 27 -530 60 -59 8 -135 27 -187 46 -127 47 -150 60 -242 142 -33 28 -67
52 -76 52 -29 0 -85 -62 -118 -133 -35 -73 -39 -111 -17 -141 8 -11 15 -25 15
-32 0 -14 -144 -120 -348 -257 -92 -62 -66 -83 48 -37 30 12 66 25 80 29 35
12 152 69 170 84 22 17 75 89 83 110 11 29 34 31 101 8 34 -11 84 -21 110 -21
40 0 49 3 53 21 5 19 10 20 67 14 33 -4 86 -13 116 -21 30 -8 67 -14 84 -14
16 0 68 -7 115 -15 127 -21 329 -45 386 -45 28 0 79 -5 115 -10 36 -6 146 -14
245 -20 99 -5 257 -13 350 -19 408 -25 948 -34 1257 -22 447 17 1001 52 1303
82 61 7 151 15 200 19 216 18 540 74 677 116 94 29 91 29 103 2 9 -21 17 -23
113 -26 100 -3 104 -2 148 28 47 31 69 37 79 20 10 -16 86 -32 122 -25 28 5
37 14 59 60 14 30 28 55 31 55 3 0 39 -18 79 -40 84 -46 121 -50 149 -17 60
68 71 167 29 287 -14 41 -28 84 -31 94 -12 38 -131 264 -169 322 -49 73 -69
79 -83 27z m-5693 -623 c40 -59 20 -75 -45 -34 -25 16 -30 43 -11 62 17 17 29
11 56 -28z"/>
<path d="M2377 5526 c-43 -44 -56 -73 -49 -107 2 -13 25 -17 131 -22 84 -4
144 -12 172 -23 74 -29 77 -25 -64 -88 -94 -41 -222 -29 -233 22 -12 55 -12
55 -52 24 -76 -59 -185 -100 -322 -122 -25 -4 -72 -12 -105 -18 -248 -47 -588
-56 -780 -22 -177 31 -273 73 -370 162 -84 78 -120 76 -172 -5 -58 -90 -73
-156 -47 -205 l18 -34 -29 -24 c-31 -25 -169 -122 -285 -202 -118 -80 -131
-107 -38 -79 127 38 267 101 314 140 16 14 40 46 52 71 13 25 28 48 34 52 10
6 51 -4 134 -33 52 -18 94 -14 108 12 16 29 28 35 47 24 10 -5 63 -18 119 -29
83 -16 141 -20 323 -20 122 0 256 5 297 11 41 5 109 14 150 19 213 25 415 84
496 146 24 19 46 34 49 34 3 0 25 -20 48 -45 56 -58 95 -58 232 0 76 32 92 38
115 45 14 5 50 18 80 30 136 53 172 60 296 60 l121 0 26 49 c15 27 27 53 27
59 0 5 -37 12 -82 16 -236 18 -358 45 -538 117 -30 12 -83 24 -117 26 l-62 5
-44 -46z m-1729 -266 c12 -18 22 -39 22 -47 0 -19 -49 -6 -78 21 -21 20 -21
23 -6 44 20 29 33 25 62 -18z"/>
<path d="M6803 5549 c-30 -37 -26 -119 12 -219 16 -43 72 -184 90 -225 39 -92
26 -122 -50 -111 -74 12 -113 74 -158 251 -31 123 -40 161 -48 209 -7 44 -21
65 -41 66 -24 0 -28 -140 -5 -220 56 -201 50 -260 -33 -308 -28 -16 -55 -22
-98 -22 -53 0 -61 3 -91 34 l-33 35 -6 135 c-3 75 -8 136 -13 136 -13 0 -39
-43 -39 -66 0 -23 -25 -44 -95 -79 -103 -51 -150 -96 -188 -179 -22 -50 -16
-69 33 -91 69 -31 181 -4 210 50 15 29 40 33 40 8 1 -30 34 -90 60 -111 44
-34 102 -46 156 -33 74 19 123 65 148 144 9 28 36 20 51 -15 20 -48 64 -85
117 -99 41 -11 52 -11 82 4 57 27 76 77 76 196 0 64 -5 112 -14 133 -8 18 -22
53 -31 78 -9 25 -23 59 -30 75 -13 31 -35 87 -59 153 -32 87 -31 85 -43 71z
m-515 -447 c3 -30 -1 -34 -40 -52 -44 -20 -123 -27 -132 -11 -3 4 2 15 12 24
24 22 135 77 147 74 6 -2 11 -18 13 -35z"/>
<path d="M12683 5433 c-3 -10 -12 -33 -19 -52 -26 -62 -12 -134 30 -163 41
-29 106 27 106 91 0 50 -10 57 -35 25 -16 -19 -27 -25 -40 -20 -16 6 -17 15
-12 71 5 54 4 65 -9 65 -8 0 -17 -8 -21 -17z"/>
<path d="M2127 4973 c-16 -16 -6 -86 17 -116 33 -44 63 -122 70 -181 7 -56 13
-67 27 -46 6 9 8 53 5 106 -3 77 -9 102 -36 155 -36 75 -64 102 -83 82z"/>
<path d="M1561 4895 c-24 -48 -30 -52 -64 -33 -12 7 -36 18 -54 24 -28 10 -34
9 -51 -10 -27 -30 -46 -104 -32 -121 19 -23 89 -55 120 -55 24 0 30 6 40 34 6
19 17 37 25 40 7 2 37 -6 65 -20 61 -29 70 -25 101 45 29 65 23 81 -41 113
-30 16 -61 28 -70 28 -9 0 -26 -19 -39 -45z"/>
<path d="M6150 4716 c-14 -8 -73 -37 -132 -66 -107 -52 -178 -103 -199 -142
-19 -35 4 -42 47 -16 22 14 96 53 166 87 158 78 238 152 165 151 -12 0 -33 -7
-47 -14z"/>
<path d="M13064 4692 c-17 -12 -54 -91 -54 -115 0 -12 10 -29 23 -37 45 -29
87 -50 102 -50 15 0 41 41 62 100 15 42 8 51 -59 85 -54 27 -58 28 -74 17z"/>
<path d="M640 4596 c-14 -8 -56 -28 -95 -45 -38 -17 -77 -36 -85 -41 -8 -5
-29 -16 -47 -24 -45 -21 -123 -95 -123 -118 0 -11 4 -18 8 -16 84 34 367 186
382 205 37 48 16 69 -40 39z"/>
<path d="M4175 4546 c-99 -49 -142 -76 -179 -115 -78 -79 -42 -76 141 15 147
72 239 136 227 156 -12 20 -67 3 -189 -56z"/>
<path d="M7320 4497 c-198 -89 -302 -154 -331 -208 -13 -25 -2 -44 17 -28 19
16 267 139 280 139 18 0 84 72 84 92 0 20 -13 22 -50 5z"/>
<path d="M13215 4368 c-33 -16 -73 -36 -90 -43 -194 -88 -262 -131 -291 -188
-13 -24 -13 -28 1 -33 9 -4 24 1 34 10 10 9 21 16 24 16 4 0 57 24 119 54 62
29 138 65 170 79 33 16 71 44 92 69 63 73 43 86 -59 36z"/>
</g>
</svg>
