<svg viewBox="0 0 16320 2050" xmlns="http://www.w3.org/2000/svg">
  <g fill="currentColor">
    <!-- BOX -->
    <!-- https://en.wikipedia.org/wiki/File:Ayat-box.svg#filelinks -->
    <!-- This work is licensed under the Creative Commons Attribution 4.0 License. -->
    <g> 
      <path id="svg_1" d="m16305,24l-16286,0l0,2007l16286,0l0,-2007zm-409,1714l0,51l-174,0q-28,-73 -108.5,-128t-134.5,-51q101,-71 134,-71q12,0 108,59t119,70t39.5,33.5t16.5,36.5zm-720,-478l176,47q103,0 196,-68q34,-25 118,-108.5t125,-83.5l59,0l-48,79q-26,47 -26,109.5t33,108.5t97,46q33,0 72.5,-26.5t39.5,-69.5t-46,-108l59,0q37,0 54,43.5t17,86.5q0,104 -70,163q-15,12 -67.5,26.5t-58.5,16.5q9,13 30.5,17.5t76.5,21.5q20,23 40.5,73.5t20.5,80.5t-40.5,89.5t-88.5,59.5q-1,-12 0,-68.5q2.14551,-121.221 -108,-174.5q-92,-46 -104.5,-55.5t-56,-55.5t-53.5,-46q2,0 -82,47t-100,47t-81.5,-47t-76.5,-47q-51,0 -51,61q0,11 4,22l-34,0q-69,-33 -114,-65q-4,-49 11,-91q134,55 207,55q216,0 340,-144q-9,-9 -14,-5q-162,102 -308,102q-42,0 -106.5,-21.5t-93.5,-45.5l18,-47.5t34,-24.5zm877,-123l-53,-8q-30,0 -62,19t-32,38.5t33,54.5t33,49.5t-17,33.5t-54,19t-62.5,-37.5t-25.5,-86t41,-97.5q9,-11 54,-52t45,-52.5t-18,-28.5q-103,-93 -103,-185.5t70,-92.5q60,0 60,51q0,36 -66,75l0,27q34,34 82,41l75,2q15,115 0,230zm-837,459q0,27 -32.5,27t-58.5,-45q73,18 91,18zm354,-717l0,43q-76,77 -92,77q-36,0 -55,-34q9,-7 55.5,-51.5t60,-44.5t21,5t10.5,5zm-958,912l-181,-10q-82,0 -161,18q-2,-28 82,-93t131,-65t90,25q22,6 30,-2q-3,-4 -39,-46t-36,-59.5t12,-19.5l116,0q74,56 115,56q104,0 173,-148l90,-222q21,-35 89,-102.5t103,-67.5t66,33q-260,157 -260,404q0,47 42,112t103.5,65t89,-44.5t26.5,-93.5l33,0q53,34 65,67q-4,32 1,90q85,-28 81,-28q47,0 114.5,44t85.5,81l0,32l-96,0q-18,1 -337,-39q-4,-1 -94,-28q-37,-12 -93.5,-60.5t-65,-48.5t-98.5,60.5t-127.5,75t-149.5,14.5zm1350,-1248q55,0 97.5,67t42.5,120t-25.5,91t-68.5,38q-13,0 -23,-5.5t-13,-5.5q36,-55 36,-90t-31.5,-69t-79,-34t-84.5,53t-37,110q0,29 74,180l-50,0q-58,0 -121,-64q-110,-113 -122,-121q-84,-65 -195,-65q-97.2861,0 -159,36q-20,11 -32,11q-33,0 -56,-62q17,-28 110,-53t137,-25q99,0 197,49q28,24 80,54q4,-7 -5,-31q-133,-128 -282,-128q-67,0 -264,65l0,-72q41,-33 147,-75q-2,4 -2,18.5t14,39t43.5,24.5t92,-55.5t67.5,-55.5q55,0 111,46t70,46t135.5,-99.5t138.5,-112.5q41,-32 41,-177q118,39 118,147q0,36 -17,85.5t-35,65t-59.5,21t-55.5,28.5l15,14l50,-9zm-66,-278l0,43q-23,33 -139.5,120.5t-132.5,87.5t-55.5,-28.5l-71.5,-52.5q57,-8 129,-61.5t96,-108.5l174,0zm-874,892q0,35 -42,56q-17,-18 -55,-46q-9,9 -5,17.5t25,40t21,49.5t-33,51l-91,-123q-15,-21 -136,-134l145,-13q171,57 171,102zm-321,-18q43,0 126,119.5t83,149.5t-45,85t-94,55q-14,0 -74,-30l0,-33q64,-52 64,-162t-65,-110q-22,0 -56,47t-72.5,47t-75.5,-30q3,-71 4,-78q9,-41 47,-60q56,37 82.5,37t47.5,-18.5t28,-18.5zm-368,518q-9,0 -23,12q-42,-16 -76,-33.5t-39,-39.5l32,0q39,16 106,61zm381,-359l0,79q1,27 -44,71t-86,44q-11,0 -48.5,-18.5t-49,-18.5t-37,18.5t-48,18.5t-45.5,-24t-23,-56t23,-69q24,36 79.5,69.5t94.5,33.5t71,-26q2,-9 3,-13q-215,-2 -215,-175q0,-24 47,-106q-6,-6 -22,-6q-74,54 -74,146q0,34 11,66q-21,3 -61.5,-23t-40.5,-64t53.5,-54.5t51.5,-77.5q68,-49 88,-47l86,0q-8,15 -50,76.5t-42,100t31,79t74,40.5t87,-29.5t64,-53.5q19,19 22,19zm-837,437l163,28q58,0 113,-37.5l55,-37.5q21,0 51,32q-27,28 -49,69l-454,0q71,-54 121,-54zm1135,-859.5q10,15.5 10,29.5t-38.5,54t-83.5,49.5t-102,9.5t-92,-13l109,-116q74,-81 118,-160q11,11 21.5,30.5t11.5,20.5q-65,66 -65,98q0,14 4,15q8,2 10,4q22,-11 54,-46l33,0q0,9 10,24.5zm-581,-601.5l181,-10q185,0 269,69q44,50 116,109q34,-58 113,-109t130,-57q308,-40 337,-39l96,0l0,33q-73,116 -190,116q-12,0 -72.5,-28t-73,-28t-14,7.5t-3.5,10.5q2,3 49,44q25,24 25,45t-26,59t-44,38l-31,0q3,-130 -117,-130q-78,0 -116,74q-28,54 -28,111q0,222.417 217,349l255,129q68,41 68,81q0,13 -5.5,23t-5.5,13l-34,0q-48,-60 -198.5,-134t-193.5,-108q-88,-70 -127,-173l-45,-145q-31,-68 -80.5,-116t-95,-48t-102,41.5t-54.5,41.5q-10,0 -102,-30q6,-33 22,-80q27,-20 61,-60l-15,-15q-92,36 -133,36q-132,0 -195,-137q90,17 162,17zm228,672l0,124q0,13 -10,29t-10,20l-34,0q-1,-6 -1,-183q12,-6 31.5,-1t23.5,11zm549,-481q-14,5 -50,25t-50,25q-2,-18 24.5,-41.5t50,-23.5t25.5,15zm-1164,1251l-167,-28q-55,0 -149,67l-24,17q-19,-20 -31,-20l0,-32q5,-57 89,-114.5t148,-57.5t94,28t45,28t21,-8t13,-16l0,-35q-17,-12 -61,-26.5t-62.5,-36.5t-36.5,-74.5t-18,-82t28,-65.5q30,54 125.5,114.5t101.5,65.5q34,26 34,67q0,11 -28,53t-28,59t18,36q-43,61 -112,61zm876,-1047q0,13 -89.5,125.5t-121.5,129.5q-55,-55 -88.5,-55t-77.5,65q-20,-16 -40.5,-46.5t-20.5,-49.5t22.5,-54.5t59.5,-35.5t66,46.5t48,46.5q65,0 65,-112q0,-68.3333 -28,-105.667q-28,-37.3333 -28,-51.3333t38.5,-40t54.5,-26q45,0 92.5,57.5t47.5,105.5l0,0.0003zm-1123,860l-50,-89q48,-32 83,-32t48,26l27,56l-108,39zm620,10l64,-8l0,52q-41,21 -64,21q-65,0 -164,-67q-4,-26 -9.5,-54t-26.5,-50t-151,-103q-58,-36 -58,-69.5t81.5,-100t123,-89t37.5,-37.5q-15,-31 -36,-43q-206,-118 -206,-169q0,-29 31,-61l121,-71q95,-61 95,-132q0,-27 -15,-58q176,-59 177,-59q23,0 64,21l0,51q-4,3 -63.5,3t-102,53t-51.5,136q-70,70 -70,94q0,92 69,138q27,18 29,20q41,60 41,89t-41,82q-26,23 -57.5,55t-31.5,70.5t34,76.5l46,44q2,34 15,94q11,27 54.5,49t64.5,22zm75,-949l60,-10q57,0 100.5,35.5t43.5,88t-14,63.5q-44,-55 -69,-65q-3,-1 -51.5,-1t-87,36t-38.5,94t20,87q36,34 91,97l-108,12q-27,-15 -66,-23q-11,-30 -34,-82l-52,-33q-47,-32 -47,-76q0,-22 90,-90q-5,-24 -4,-83q1,-21 37,-49.5t53.5,-28.5t42,14t33.5,14zm-942,1111l-21,-127q0,-18 7,-33q60,-96 149,-262q71,20 172,38l0,34l-94,21q-72,22 -72,60q0,10 56,122q-28,22 -74.5,82t-46.5,87t18,46l-428,9q65,-35 89.5,-44t78.5,-9l130,28q36,0 36,-52zm994,-1492l-113,18q-89,0 -133,-22q-26,-22 -71,-52l-36,43.5q-18,21.5 -31,21.5l-429,0q-8,-14 -26,-37q-13,13 -35,37l-1969,0q-53,-72 -114,-119l4644,0l0,1857l-4644,0q69,-53 114,-119l1969,0l35,37q8,-14 26,-37l429,0q15,0 38,29.5t28,35.5q69,-74 205,-74l113,18l984,0l188,37q19,0 27,-24q58,0 162,-1q-13,34 -27,47l89,6q56,0 100,-66.5t44,-115.5l0,-287q0,-13 16.5,-42t18.5,-38.5t2,-53.5t-6.5,-55.5t-18.5,-31t-12,-32.5l0,-342q0,-13 16.5,-37t18.5,-34.5t2,-41.5l-37,-122l0,-305q0,-70 -59.5,-117t-110.5,-47t-63,6q10,20 28,48l-166,0q0,-26 -24,-26l-188,38l-984,0zm-239,198q-65,43 -80,42l-31,0q44,-29 111,-42zm-339,517l37,-9q13,0 20.5,6t29,21.5l61.5,46.5q53,41 51,55q-58,39 -182,141q-18,-37 -34,-37l-55,71q-32,41 -65.5,41t-76.5,-17t-52,-34q13,-51 51,-107q41,27 78,27t75,-28t38,-67.5t-40,-60.5t-71,-21q-100,0 -146,127l-63,206q-90,182 -164,277q47,50 35,125q-63,-18 -108,-18t-185.5,51.5t-269.5,51.5t-207,-28t-144.5,-65.5t-75,-37.5t-41,25.5t-44.5,29.5q-16,-113 -61,-197q-6,-11 -43.5,-63t-37.5,-66t60,-157q81,195 233.5,316.5t358.5,121.5q361,0 565,-352l86,-267q80,-201 233,-201q45,0 84.5,46.5t69.5,46.5zm-112,-538l190,-38q59,0 90,40q-2,29 -4,75l49,54q15,18 15,50q0,56 -104.5,111t-126.5,104q-8,20 -25,59q-33,-65 -33,-98.5t14.5,-88.5t33,-76.5t95.5,-28.5q24,-19 24,-38l-7,-33l-42,0q-4,2 -36.5,29t-44.5,27q-57,0 -146,-49q-114,-62 -114,-147q0,-10 22,-55q104,103 150,103zm-28,176l59,10l0,33q-15,35 -30,50q-4,-2 -56,-15q-30,-8 -33,-38q40,-40 60,-40zm214,-270l-168,38q-39,0 -53,-7.5t-63,-56.5l454,0q19,29 39,88q-5,4 -26.5,10.5t-25.5,11.5q-7,-31 -64.5,-57.5t-92.5,-26.5zm-540,10l-125,36q-34,0 -84.5,-26t-74.5,-34l316,0q106,2 112,9q-15,23 -15,51q0,73 127,200q-56,84 -56,89q0,34 64,58q41,15 73,19q6,9 21,28l0,42q-112,19 -165,29q-86,-202 -158,-293q19,-61 19,-122q0,-86 -54,-86zm33,706q0,14 -16.5,63l-18.5,55q-131,478 -566,478q-247,0 -409.5,-168t-162.5,-398.5t167.5,-409t386.5,-178.5q103,0 196,31l147,74q68,33 172,202t104,251zm-1504,699l178,46q69,0 69,-102q0,-29.6471 -42,-82.3235q-42,-52.6765 -42,-64.1765t20,-36t21,-28.5q7,-2 21,-3q83,103 93,162q2,8 4,131q0,21 13,24q-2,-1 21.5,-1t70,-23t58.5,-23t68.5,31t75.5,40l-819,0q130,-71 190,-71zm619,-1430q-95,71 -113.5,71t-67.5,-23t-65.5,-23t-39.5,25q0,194 -119,300q-2,-3 -21.5,-29.5t-19.5,-38.5t29.5,-42t32.5,-36q31,-65 31,-98.5t-17.5,-57t-43.5,-23.5q5,0 -69,23t-127,23t-87,-14t-112,-57l809,0zm731,109l115,-9q3,104 -15,143l88,137q68,113 68,174q0,16 -25.5,48t-45.5,45q-69,-239 -247.5,-379.5t-362,-140.5t-351.5,105t-241,292q-49,124 -57,215l-14,165q-24,162 -142,298q-60,0 -78,35q159,50 159,141q0,17 -22,61q-86,-39 -106,-43t-75,-4t-109.5,20l-109.5,42q-3,1 -65,15.5t-82,35.5q-22,39 -66,97q-22,18 -101.5,48.5t-135.5,30.5l-6392,0q-41,0 -123,-26.5t-107,-47t-44,-59t-27,-43.5q-54,-30 -269,-101q-35,-12 -111.5,-12t-119,23.5l-42.5,23.5q-11,0 -19.5,-21.5t-8.5,-39.5q0,-48 53.5,-89t97.5,-49q8,-4 8,-18q-21,-11 -80,-20q-84,-90 -133,-260q-27,-95 -28,-159q-2,-175 -107,-356q-123,-212 -311,-260q-152,-40 -213,-40q-195,0 -373,140.5t-254,379.5q-66,-75 -66,-98.5q0,-56.0323 79,-182.266t79,-137.234t-26,-98q6,-12 29,-32q42,10 101,10t189.5,-51.5t288.5,-51.5q22,0 110,18.5t122.5,32t84.5,42t61,28.5t31,-18.5t30,-18.5l39,0q3,79 88,235t87,158q31,74 38,212.5t14,179.5q25,137 138,282.5t247,184.5q96,29 186,43l83,84q84,82 131,82l6486,0q3,0 36,-13q53,-28 73,-46q39,-48 104,-106q22,-10 61.5,-12.5t41.5,-3.5q51,-10 157,-65q168,-85 274,-310q35,-74 51.5,-265t36,-241.5t94,-183t83.5,-215.5l40,0q12,0 32.5,18.5t30.5,18.5t59.5,-28.5t86,-42.5t122,-32t107.5,-18q146,0 290,51.5t194,51.5zm-1224,646q0,167 -108,335t-296,224q-54,7 -149,25q-20,5 -88.5,85t-127.5,80l-6448,0q-31,0 -81,-29t-71,-66q-33,-63 -64,-70q-55,-7 -150,-25q-189,-56 -296,-224t-107,-322.5t67,-292.5t197,-219t217.5,-88.5t117.5,-15.5q8,-3 62,-79t89,-76l6486,0q38,0 91,76t60,79q45,15 120,26t94,17q76,20 182.5,109.5t132.5,165l51,147.5q19,62 19,138zm83,-674l0,71q1,49 -66.5,83.5t-93.5,32.5q-7,5 -7,19q26,9 82,19q67,85 67,106t-52,124q-57,-180 -242,-304.5t-345,-117.5q0,-1 -84,-104q-47,-60 -92,-60l-6486,0q-38,0 -103,74l-73,90q-128,0 -298,80q-90,43 -168,143t-122,199q-51,-102 -51,-123.5t67,-106.5q28,-2 56,-5q28,-5 27,-28l-95,-31q-73,-34 -73,-93l0,-68q165,36 211.5,36t120,-28l136.5,-53q29,-7 62,-16.5t48,-24.5q17,-39 65,-97q117,-78 218,-78l6430,0q23,0 113,32.5t107,47.5t37.5,51.5t28,45t164,64.5t206,56t205.5,-36zm-8120,1395l177,-46q94,0 190,71l-819,0q25,-10 80.5,-40.5t65.5,-30.5t56.5,23t58.5,23l30,0q13,-3 17,-24q-2,-50 2,-130q7,-40 42.5,-97.5t73.5,-64.5q1,3 20,30.5t19,44t-9,15.5q-6,10 -40,52.5t-34,71.5q0,102 70,102zm367,-1476l-107,53q-42,18 -99,18q-81.231,0 -156,-36q-22,-10 -40.5,-10t-36,25t-17.5,63.5q0,70.1774 69,132.5q25,23 25,37.5t-52,66.5q-108,-125 -110,-301q-20,-24 -37.5,-24t-66.5,23t-61,23t-61.5,-31t-68.5,-40l819,0zm-2163,638l36,9q38,0 68.5,-46.5t85.5,-46.5q109,0 179,104q46,69 89,213t60,170q214,333 556,333q411,0 591,-438l61,158q0,11 -49,84.5t-61,108.5q-11,48 -32,132q-13,-3 -45,-29t-43.5,-26t-74,38.5q-150.162,92.5 -314.831,92.5q-164.669,0 -304.169,-51.5t-170.5,-51.5l-125,0l0,-50q0,-13 17.5,-36.5t19.5,-28.5q-119,-123 -165,-270q-22,-60 -56,-167q-43,-165 -151,-165q-39,0 -75.5,20t-36.5,54t34.5,68.5t76.5,34.5t81,-27q50,75 50,95t-5,25t-5,8q-120,30 -116,30q-42,0 -61.5,-43t-67.5,-69l-29,37l-103,-85q-63,-51 -79,-79q26,-13 88.5,-59.5t75.5,-46.5zm1474,-286.5q168,178.5 168,409t-163,398.5t-409,168q-442,0 -567,-478q-34,-130 -34,-118q0,-52 54.5,-165t95.5,-167.5t111,-109q149.633,-116.5 362.816,-116.5q213.184,0.00002 381.184,178.5zm-986,1124.5l130,-28q42,0 84,17.5l84,35.5l-418,0q4,-17 4,-34q0,-89 -116,-190q55,-112 55,-122q0,-39 -78,-62q-44,-9 -89,-20l11,-43l21,0q30,0 68,-14t45,-14l29,0q52,85 147,262q7,15 7,33l-21,125q0,54 37,54zm-526,10l163,-28q24,0 67.5,14t52.5,40l-453,0q-21,-41 -48,-69q32,-32 44,-32t63.5,37.5t110.5,37.5zm293,-322l-50,89q-17,-9 -108,-40l27,-56q18,-26 62,-26t69,33zm-335,139q15,24 35.5,24t39.5,-28t78.5,-28t126,32t98.5,71t31,69l0,32q-11,0 -32,20q-107,-84 -172,-84l-168,28q-68,0 -111,-61q12,-22 12,-46.5t-25,-58.5t-25,-43q0,-43 52,-78l90,-51q82,-56 124,-118q23,68 23,87.5t-32.5,91.5t-64.5,78q-47,8 -80,28l0,35zm-112,16q-7,15 -52.5,44t-58.5,29q-27,0 -27,-25q99,-49 107,-48l31,0zm-350,250l113,-18q95,0 133,21q26,22 71,53q1,-1 28,-33t39,-32l429,0q9,14 26,37l36,-37l1967,0q54,72 114,119l-4643,0l0,-1857l4634,0q9,0 9,7t-52,52.5t-62,59.5l-1967,0q-13,-15 -36,-37q-8,13 -26,37l-429,0q-15,0 -37,-29.5t-29,-35.5q-23,30 -89,52t-116,22l-113,-18l-984,0l-187,-38q-15,0 -30,24q-57,0 -161,2q9,-20 28,-48l-88,-6q-56,10 -100.5,65.5t-44.5,96.5l0,309l-37,120q0,37 2,45.5t18.5,32.5t16.5,32l0,347q0,14 -16.5,37.5t-18.5,28t-2,48.5t2,60t18.5,41.5t16.5,33.5l0,291q0,75 54,127.5t132,52.5q35,0 47,-6q-9,-19 -28,-47l166,0q0,25 25,25l187,-37l984,0zm1319,-1570q-118,62 -141,62t-73.5,-18t-60.5,-18q-55,0 -55,85q0,18 19,126q-74,85 -158,291q-86,-29 -164,-29l0,-42q9,-15 83.5,-42.5t74.5,-63.5q0,-20 -56,-98q124,-85 124,-219q0,-17 -2,-34l409,0zm-1064,912q40,37 40,72.5t-50,60.5q-21,1 -51,7q5,-15 5,-58q0,-150 -77,-150q-21,0 -14,6q47,94 47,106q0,41 -23.5,89t-54.5,61q-35.7693,15 -106,15q-21,2 -30,16q33,33 73,33t98,-34.5t77,-68.5q0,20 21,20l0,79q-8,12 -35.5,31t-41,19t-40,-18.5t-37.5,-18.5t-48,18.5t-49,18.5q-54,0 -92,-48.5t-38,-88.5t23,-76q87,83 137,83t85,-37t35,-83.5t-31,-95.5q-28,-31 -62,-80l87,0q49,-1 72.5,40.5l42.5,75.5q14,2 37,6zm403,-616l60,-10q11,0 36,14.5t25,35.5t-43,30t-46,13q-3,-4 -17.5,-21.5t-14.5,-31.5l0,-30zm-595,959l64,8q134,0 134,-141q0,-11 -1,-23q19,-15 50,-48q31,-52 31,-76.5t-31,-76.5q-25,-18 -58,-46q-41,-54 -41,-93.5t41,-78.5q30,-20 68,-56q30,-67 30,-100t-71,-95q-4,-63 -25,-99q-50,-90 -132,-90q-32,0 -59,8l0,-62q40,-21 59,-21t93.5,27t87.5,31q0,5 -2,38.5q-3.76562,63.0742 21.6172,103.287t94.3828,72.2129t86,48q34,27 34,61t-116,113.5t-126,96.5q8,12 125,100.5t117,122.5q0,15 -21.5,42t-37.5,34q-74,32 -133,88.5t-54,116.5q-21,22 -75.5,45t-83,23t-69.5,-21l0,-52l0,0.0001zm-11,-254q-31,30 -71.5,30t-76.5,-47t-61,-47t-42.5,38.5t-17.5,82.5q0,108 64,151l0,33q-60,30 -73,30q-42,0 -91,-50.5t-49,-86.5t84,-154t125,-118q12,0 37.5,18.5t46.5,18.5t74,-37q39,24 48,67q2,7 3,71zm447,-929l191,38q52,0 150,-103q22,45 22,55q0,75 -91,135.5t-169,60.5q-12,0 -49,-28t-49,-28q-33,0 -33,33q0,26 25,38q73,9 93,27.5t35,75.5t15,98.5t-33,90.5q-19,-42 -68,-111q-28,-24 -95,-64t-90,-60q-3,-13 -3,-48t30.5,-55.5t30.5,-73.5q0,-18 -2,-40q32,-41 90,-41zm-386,1433l-182,10q-117,0 -169.5,-21.5t-127,-75t-80.5,-53.5q-21,0 -16,2q-19,24 -55,60q-94,61 -179,75q-263,42 -337,39l-96,0l0,-32q26,-50 92.5,-87.5t93.5,-37.5t52.5,14t35.5,14q22,0 11,-7q-12,-58 -3.5,-82.5t30.5,-46.5t38,-21l30,0q2,57 31.5,97.5t83,40.5t100.5,-61.5t47,-115.5q0,-99 -56.5,-204.5t-164.5,-171.5q-30,-18 -30,-40q42,-21 64,-21t67,41l96,99.5q48,49.5 85,179.5q63,220 200,220q50,0 114,-55l117,0q0,9 10,22l-75,100l23,0q68,-21 108.5,-21t118,60.5t85.5,96.5q-92,-17 -162,-17zm-694,-198q-32,40 -61.5,40t-29.5,-27q-12,0 91,-13zm521,-647l0,183l-35,0q-20,-81 -20,-111q0,-70 33,-83q10,9 22,11zm-102,138q-51,29 -113.5,107l-114.5,144q-32,-33 -32,-50.5t23,-48.5t23,-42.5t-5,-16.5q-24,19 -66,46q-2,-3 -16.5,-23.5t-14.5,-32.5q0,-47 92,-74.5t146.5,-27.5t77.5,19zm154,-494l61,10q11,0 35.5,-14t33.5,-14q47,0 73,36t26,71.5t-8,54.5l49,37q42,32 42,51t-18,48.5t-40,41.5q-19,5 -42,20q-8,30 -26,76l-75,29l-95,0l-5,-22l74,-68q32,-34 32,-93.5t-34.5,-101t-89,-41.5t-57.5,1q-24,9 -68,64l-12,-89q46,-97 144,-97zm679,-250l-167,-38q-33,0 -89.5,25.5t-66.5,57.5q-41,-20 -53,-20q10,-31 39,-89l453,0q-47,49 -61,56.5t-55,7.5zm-325,105q3,7 -8,15q-68,-22 -89,-44q34,8 97,29zm-310,343.5q26,30.5 26,71t-62,84.5q-43,-65 -75,-65t-91,55q-34,-22 -122,-132.5t-88,-122.5q0,-36 45.5,-99.5t94.5,-63.5q93,36 93,69t-18,40t-23,14q-14,24 -14,100q0,112 64,112q35,0 49,-46.5t54.5,-46.5t66.5,30.5zm-198,226.5q-38,13 -97,13t-113,-13q-18,-4 -62,-46.5t-44,-56.5t10,-30.5t10,-20.5l33,0q17,19 53,46l15,-15q-36,-72 -65,-101q11,-23 34,-52q27,53 123,159.5t103,116.5zm-772,600q-75,13 -148,67.5t-96,116.5l-174,0l0,-49q-1,-14 17,-38t31,-30q63,-29 145.5,-81t89.5,-52q34,0 135,66zm125,-298l178,-47q15,0 33,20t18,40q0,34 -84.5,56.5t-142.5,22.5t-170,-40q-21,-8 -61,-35t-55.5,-27t-8.5,6q125,143 340,143q72,0 117,-18l90,-37q19,58 11,91q-92,66 -117,66l-30,0q3,-13 3,-26q0,-58 -50,-58q-15,0 -79.5,47t-79.5,47t-99,-47l-82,-47q-13,0 -56.5,48.5t-62.5,59.5q-60,25 -164,96q-36,37 -38,90.5t-2,105.5q-66,-17 -97.5,-67t-31.5,-99t60,-137l65,-12q45,-10 44,-30q-197,-11 -197,-203q0,-137 130,-128q-46,69 -46,100.5t32.5,66.5t86,35t88.5,-43.5t35,-117.156t-74,-182.344l59,0q45,0 113,66q106,106 133,126q91,68 192,68zm740,-1043l182,10q87,0 162,-17q-62,137 -194,137q-44,0 -53.5,-3.5t-36,-18t-36,-14.5t-24.5,14q4,6 44,52.5t40,72.5t-11,27l-91,19q-6,0 -57.5,-41.5t-99.5,-41.5t-103,55.5t-77,123.5t-77,199q-59,101 -246.5,195t-235.5,148q-8,3 -22,4q-22,-22 -22,-37q0,-49 182,-138t201,-106q157,-137 157,-305q0,-65 -28,-119q-38,-76 -116,-76q-126,0 -118,129l-32,0q-20,-11 -44.5,-41.5t-24.5,-53t33,-52.5t41,-42l-15,-14q-131,56 -147,56q-192,-48 -191,-118l0,-31l96,0q119,-4 337,39q61,12 129,51t91,89q20,26 28,26q95,-112 182,-145t197,-33zm-957,615l33,-10q29,22 115,108q-45,22 -60,22t-88,-77l0,-43zm-429,250l-55,8q-14,-114 1,-230q111,8 156,-43l0,-26q-20,-11 -42.5,-35.5t-22.5,-40.5q0,-51 60,-51q70,0 70,94.5t-110,191.5q-1,2 -6,4.5t-5,18.5t48.5,58t49.5,44q42,47 42,98t-24.5,87t-73.5,36q-21,0 -40.5,-15.5t-19.5,-33.5t32.5,-53t32.5,-54.5t-33,-38.5t-60,-19zm37,-586l32,9q19,0 33,-13q-5,-5 -12.5,-11.5t-10.5,-10.5q-56,-4 -84.5,-23t-44.5,-68.5t-16,-87.5q0,-105 120,-147q-5,141 39,177q265,212 276.5,212t68.5,-46t111,-46q12,0 68,55.5t91,55.5t49,-28.5t7,-53.5q54,21 148,74l0,62l-13,11q-162,-65 -248,-65t-171,40t-127,112q8,2 21.5,2t36.5,-23t28,-26q93,-49 173.5,-49t163.5,26t108,62q-45,52 -53.5,52t-57.5,-23.5t-147.5,-23.5t-183.5,65q-10,8 -121,121q-63,65 -123,64l-49,0q74,-150 74,-190.5t-36,-96.5t-94,-56q-31,0 -67,29.5t-36,67.5t37,96q-2,0 -18.5,5.5t-33.5,5.5q-63,-38 -75,-64q-3,-8 -3,-56t30,-110q41,-86 110,-86zm465,-103l-68,47q-43,29 -55.5,29t-144.5,-96.5t-131,-114.5l0,-40l174,0q31,65 103,115t122,60zm13925,1231l-55,0l10,35q28,0 45,-35zm-85,0l-54,0l21,25l33,0l0,-25zm-73,-1016q-12,-19 -42,-19q-78,0 -143.5,46t-65.5,131q0,41 24.5,92t62.5,56q-41,-137 -41,-143q0,-77 50,-109t114,-30q16,-5 41,-24zm149,-280l-27,-11l0,13l23,11l4,-13zm-67,-26l-53,10q0,5 10,13t10,13q10,-7 21.5,-16t11.5,-20zm-12965,1323l-54,0l0,24l54,-24zm-84,9l-54,-11q0,16 20,36q22,0 34,-25zm355,-868q0,-93 -68,-135t-142,-42q-29,0 -42,13q10,18 43.5,24t62.5,12q99,36 99,133q0,27 -45,142q41,3 66.5,-49t25.5,-98zm-291,-464l-43,0q0,20 32,37q19,-20 11,-37z"/>
    </g>
    <!-- AYATIHA -->
    <g transform="translate(2920,1200) scale(0.3,-0.3)">
      <path d="M2850 1773 c-8 -3 -28 -11 -45 -18 -16 -7 -43 -17 -58 -24 -38 -15
      -95 -14 -163 4 -49 13 -61 13 -78 1 -40 -26 -71 -64 -106 -129 -33 -62 -34
      -66 -17 -84 20 -22 85 -24 176 -5 29 7 85 12 123 12 56 0 79 5 127 29 74 38
      112 70 136 116 l20 36 -37 35 c-37 34 -49 38 -78 27z"/>
      <path d="M122 1557 c-29 -31 -47 -156 -32 -218 6 -24 15 -147 20 -274 10 -233
      14 -262 45 -394 24 -101 41 -139 80 -177 43 -41 71 -47 180 -34 50 5 95 10
      102 10 21 0 43 -62 43 -120 0 -32 9 -93 20 -136 17 -71 24 -84 69 -126 59 -57
      86 -61 136 -17 70 61 75 88 63 341 -4 100 12 124 103 155 82 28 154 29 210 3
      61 -27 90 -25 121 8 75 80 64 143 -37 212 -69 47 -123 43 -222 -18 -43 -27
      -100 -59 -127 -73 -70 -35 -137 -112 -166 -192 -5 -15 -17 -27 -26 -27 -14 0
      -16 8 -11 51 8 66 47 150 90 193 53 53 87 101 87 123 0 10 -13 32 -28 47 l-29
      27 -32 -38 c-18 -21 -46 -58 -64 -82 -53 -73 -92 -98 -179 -112 -68 -11 -84
      -11 -132 4 -49 16 -55 21 -74 65 -38 91 -64 215 -72 352 -5 74 -11 182 -15
      240 -9 147 -12 165 -41 200 -31 36 -53 38 -82 7z"/>
      <path d="M1906 1549 c-53 -46 -53 -59 -3 -133 38 -55 46 -76 56 -145 14 -97
      30 -137 66 -171 l27 -25 28 31 c24 28 28 42 34 120 7 93 -6 170 -40 236 -24
      46 -94 118 -115 118 -10 0 -34 -14 -53 -31z"/>
      <path d="M1110 1483 c-14 -9 -27 -19 -30 -22 -3 -3 -17 -17 -32 -29 l-26 -24
      -57 37 c-54 34 -58 35 -81 20 -43 -28 -114 -101 -114 -117 0 -19 83 -124 110
      -138 34 -18 54 -11 102 42 l49 51 27 -25 c50 -46 91 -70 111 -63 26 8 131 120
      131 140 0 23 -122 145 -146 145 -11 0 -31 -8 -44 -17z"/>
      <path d="M1480 1463 c-32 -36 -33 -38 -27 -115 3 -43 10 -85 16 -92 7 -8 15
      -107 21 -247 13 -303 15 -321 43 -382 53 -116 141 -194 251 -223 60 -16 313
      -18 424 -4 147 19 274 105 324 218 17 39 20 58 15 124 -4 43 -12 98 -19 121
      -15 51 -75 113 -118 122 -28 6 -37 3 -64 -24 -26 -27 -31 -39 -30 -79 0 -32 9
      -62 27 -93 31 -53 35 -94 10 -108 -10 -5 -56 -17 -103 -26 -150 -31 -417 -6
      -513 48 -29 16 -46 37 -70 87 l-31 65 -8 255 c-8 270 -16 320 -60 367 -30 32
      -51 29 -88 -14z"/>
      <path d="M2787 1332 c-15 -15 -27 -33 -27 -38 0 -6 -13 -28 -30 -50 -16 -21
      -30 -48 -30 -59 0 -11 12 -76 25 -145 14 -69 30 -195 35 -280 16 -251 18 -265
      52 -299 48 -49 81 -20 122 105 40 121 46 277 17 404 -67 287 -81 335 -109 363
      l-28 27 -27 -28z"/>
      <path d="M2202 295 c-28 -19 -54 -39 -57 -45 -4 -7 -24 5 -51 30 -24 22 -52
      40 -63 40 -24 0 -117 -101 -123 -134 -3 -15 2 -38 13 -55 18 -30 79 -81 96
      -81 6 0 30 18 55 39 l44 40 62 -41 c77 -51 93 -47 162 32 49 56 52 63 40 85
      -21 39 -66 89 -97 107 -29 17 -30 17 -81 -17z"/>
    </g>
    <!-- TARTIBHA -->
    <g transform="translate(12510,1200) scale(0.3,-0.3)">
      <path d="M1020 1783 c-69 -36 -163 -92 -210 -123 -72 -48 -182 -111 -314 -180
      -53 -28 -110 -110 -75 -110 6 0 9 -6 6 -14 -7 -18 43 -66 69 -66 10 0 102 55
      204 121 102 67 244 155 315 197 166 95 179 105 206 148 l21 35 -28 30 c-15 16
      -37 29 -48 29 -12 0 -77 -30 -146 -67z"/>
      <path d="M1732 1745 l-49 -44 -47 36 c-44 34 -48 35 -74 22 -29 -15 -132 -114
      -132 -128 0 -13 61 -94 89 -118 37 -33 69 -29 111 12 l37 36 52 -36 c29 -19
      60 -35 68 -35 23 0 133 115 133 139 0 32 -49 99 -96 132 l-42 29 -50 -45z"/>
      <path d="M2438 1695 c-26 -19 -51 -35 -56 -35 -4 0 -23 11 -42 24 -63 42 -74
      42 -125 -5 -24 -23 -54 -57 -66 -75 -20 -34 -20 -34 -1 -61 22 -31 61 -67 110
      -102 36 -26 37 -25 103 37 l36 33 56 -25 c31 -15 63 -26 72 -26 20 0 125 110
      125 131 0 25 -128 139 -155 139 -5 0 -31 -16 -57 -35z"/>
      <path d="M142 1470 c-68 -80 -68 -80 -30 -189 14 -42 18 -85 18 -195 0 -151
      12 -288 30 -355 13 -49 79 -116 136 -139 28 -12 66 -16 136 -14 104 3 138 -6
      138 -38 0 -10 4 -21 8 -24 5 -3 12 -50 16 -106 8 -130 38 -209 107 -279 27
      -28 58 -51 68 -51 39 0 106 103 133 203 12 45 11 52 -10 87 -17 30 -22 55 -22
      109 l0 70 58 60 c46 48 66 62 104 70 57 13 115 -2 190 -51 47 -29 60 -33 123
      -33 94 0 113 7 191 67 44 34 71 48 79 42 93 -71 144 -92 250 -101 70 -6 70 -6
      106 30 45 45 70 118 76 225 4 64 2 93 -12 129 -19 48 -79 123 -99 123 -23 0
      -65 -55 -77 -102 -11 -40 -10 -58 3 -113 l15 -65 -42 0 c-58 0 -112 25 -134
      61 -32 52 -71 185 -75 255 -4 54 -9 72 -29 91 l-24 24 -36 -36 c-21 -21 -39
      -47 -41 -59 -13 -62 -14 -106 -5 -184 5 -48 7 -103 4 -124 -6 -31 -11 -37 -39
      -42 -41 -8 -98 12 -168 58 -43 29 -67 38 -120 43 -80 7 -128 -7 -188 -56 -25
      -20 -62 -49 -83 -64 -49 -37 -80 -85 -113 -177 -33 -96 -49 -112 -41 -45 11
      96 34 149 92 214 52 58 55 65 55 115 0 43 -5 57 -24 75 l-25 23 -40 -43 c-22
      -24 -57 -63 -78 -87 -26 -30 -50 -46 -78 -52 -96 -23 -291 -1 -325 35 -33 35
      -60 255 -62 494 -1 139 -1 140 -28 166 l-28 27 -60 -72z"/>
      <path d="M2603 1217 c-21 -22 -33 -46 -37 -78 -7 -51 1 -82 33 -118 17 -19 20
      -32 15 -60 -11 -57 -19 -59 -171 -30 l-73 13 -35 -34 c-48 -47 -48 -91 0 -154
      40 -53 41 -56 19 -119 -16 -48 -67 -102 -146 -154 -59 -40 -199 -74 -296 -72
      -81 2 -85 1 -115 -29 l-31 -32 29 -30 c58 -60 308 -105 405 -73 103 35 117 48
      217 200 68 102 100 164 119 230 1 7 31 15 65 19 56 6 67 12 103 48 44 44 69
      108 82 202 5 39 1 67 -17 123 -22 68 -44 100 -110 158 l-25 23 -31 -33z"/>
      <path d="M1107 417 c-43 -37 -77 -85 -77 -108 0 -24 61 -82 109 -103 l40 -19
      48 31 c70 45 106 86 98 111 -14 47 -115 122 -162 121 -10 -1 -35 -15 -56 -33z"/>
      <path d="M1540 302 c-22 -7 -58 -41 -91 -85 l-28 -38 24 -47 c13 -26 36 -59
      52 -74 l28 -27 58 35 57 36 35 -31 c20 -17 49 -38 65 -46 27 -14 32 -14 55 1
      27 17 115 129 115 146 0 17 -108 118 -127 118 -10 0 -34 -13 -53 -30 -19 -16
      -39 -29 -44 -30 -5 0 -36 17 -70 38 -34 22 -68 37 -76 34z"/>
    </g>
  </g>
</svg>
