<!-- <?xml version="1.0" standalone="no"?> -->
<!DOCTYPE svg PUBLIC "-//W3C//DTD SVG 20010904//EN"
 "http://www.w3.org/TR/2001/REC-SVG-20010904/DTD/svg10.dtd">
<svg version="1.0" xmlns="http://www.w3.org/2000/svg"
  viewBox="0 0 900.000000 396.000000"
 preserveAspectRatio="xMidYMid meet">
<metadata>
Created by potrace 1.10, written by Peter Selinger 2001-2011
</metadata>
<g transform="translate(0.000000,396.000000) scale(0.100000,-0.100000)"
fill="currentColor" stroke="none">
<path d="M2314 3876 c-61 -23 -137 -57 -169 -74 -32 -18 -66 -32 -75 -32 -9 0
-25 -7 -36 -15 -10 -8 -25 -15 -31 -15 -7 0 -50 -21 -95 -46 -46 -26 -153 -85
-238 -131 -174 -95 -293 -163 -300 -172 -3 -3 -26 -17 -53 -31 -107 -56 -177
-158 -177 -258 0 -77 55 -151 128 -172 51 -14 72 1 72 50 0 35 -8 48 -55 100
-30 33 -55 66 -55 73 0 18 25 40 80 69 25 14 71 41 102 61 32 21 68 41 80 46
13 5 38 21 57 35 19 14 38 26 43 26 4 0 36 18 72 39 75 46 239 126 466 229 68
30 201 82 212 82 6 0 24 6 41 14 18 8 45 17 60 20 36 8 74 46 83 82 19 74 -54
82 -212 20z"/>
<path d="M3770 3909 c-30 -4 -85 -12 -121 -17 -37 -5 -72 -12 -78 -17 -7 -4
-44 -11 -83 -16 -67 -8 -100 -16 -173 -41 -16 -5 -50 -14 -74 -19 -24 -5 -49
-13 -55 -18 -6 -5 -26 -12 -44 -16 -18 -4 -45 -13 -60 -21 -15 -8 -36 -14 -47
-14 -12 0 -65 -18 -119 -40 -54 -22 -103 -40 -109 -40 -7 -1 -30 -9 -52 -20
-22 -11 -50 -19 -62 -20 -12 0 -24 -4 -27 -9 -3 -5 -18 -12 -33 -15 -46 -11
-183 -69 -183 -78 0 -4 -6 -8 -12 -8 -7 0 -67 -27 -133 -59 -66 -32 -130 -62
-143 -66 -45 -13 -143 -116 -180 -190 l-36 -70 -1 -145 c0 -129 2 -150 22
-191 12 -25 33 -53 47 -62 13 -9 107 -99 208 -200 101 -101 228 -222 283 -269
55 -47 120 -109 145 -138 25 -29 59 -67 75 -85 114 -122 143 -155 165 -187 14
-19 47 -61 74 -91 27 -31 54 -65 60 -76 6 -11 30 -48 54 -83 76 -114 123 -224
125 -296 2 -44 -2 -55 -28 -82 -38 -40 -153 -95 -230 -110 -33 -6 -71 -15 -85
-19 -14 -5 -61 -17 -105 -26 -44 -10 -107 -31 -140 -46 -33 -14 -76 -30 -95
-34 -19 -4 -55 -18 -79 -31 -24 -13 -50 -24 -58 -24 -9 0 -49 -20 -90 -45 -40
-25 -76 -45 -80 -45 -13 0 -236 -205 -317 -290 -137 -145 -173 -177 -240 -215
-52 -29 -82 -39 -132 -43 -57 -4 -68 -2 -103 21 -21 14 -51 47 -67 74 -27 44
-29 56 -28 143 0 89 25 205 55 260 5 8 27 53 49 100 22 47 51 105 65 130 14
25 25 50 25 57 0 25 44 84 74 100 52 29 169 63 212 63 23 0 55 5 73 11 23 8
44 8 74 1 23 -6 85 -21 137 -33 52 -13 116 -35 141 -51 49 -30 90 -36 106 -15
11 12 28 166 25 226 -1 42 -27 68 -107 111 -205 109 -317 195 -356 274 -10 22
-19 45 -19 50 0 6 -7 24 -16 41 -27 52 -72 198 -84 275 -7 41 -16 94 -20 117
-12 76 17 89 86 37 44 -34 64 -31 64 8 0 23 -21 63 -74 142 -41 61 -100 159
-131 218 -31 59 -61 111 -67 114 -15 9 -36 -22 -49 -71 -6 -22 -15 -55 -20
-72 -20 -64 -23 -167 -6 -204 24 -54 45 -129 52 -189 4 -30 23 -127 42 -215
20 -88 40 -182 45 -210 11 -56 35 -134 47 -150 5 -5 14 -27 20 -47 10 -29 9
-41 -1 -57 -7 -12 -17 -21 -21 -21 -10 0 -45 -15 -146 -63 -54 -26 -337 -207
-351 -226 -3 -3 -39 -36 -80 -72 -41 -37 -95 -84 -119 -105 -24 -22 -94 -87
-154 -146 -61 -60 -115 -108 -120 -108 -5 0 -34 -24 -65 -54 -48 -45 -155
-126 -168 -126 -1 0 -23 -13 -47 -30 -25 -16 -51 -30 -58 -30 -7 0 -36 -8 -66
-17 -47 -15 -58 -15 -100 -2 -57 18 -91 62 -117 150 -15 49 -16 66 -6 116 20
94 47 193 75 266 14 37 25 75 25 84 0 20 73 165 104 208 12 17 37 57 55 89 18
33 39 66 46 73 8 7 17 22 20 33 4 12 21 23 48 30 23 6 56 16 74 21 63 20 116
112 138 236 8 43 19 92 25 108 13 34 4 98 -12 93 -6 -2 -17 -23 -24 -47 -18
-63 -49 -91 -97 -91 -72 0 -141 79 -162 187 -10 52 -7 251 5 348 12 88 51 232
83 304 19 43 26 65 62 199 20 71 19 118 -1 126 -28 11 -32 5 -98 -149 -8 -16
-21 -52 -31 -80 -10 -27 -24 -64 -31 -82 -8 -17 -14 -40 -14 -51 0 -12 -4 -23
-9 -26 -5 -4 -12 -25 -16 -49 -4 -23 -13 -62 -20 -87 -8 -25 -19 -63 -24 -85
-37 -138 -37 -567 0 -671 10 -32 26 -68 34 -81 21 -32 19 -57 -10 -91 -27 -33
-69 -90 -138 -192 -69 -101 -168 -298 -184 -365 -14 -61 -31 -167 -39 -240 -6
-59 13 -181 36 -233 54 -121 175 -235 289 -272 79 -25 134 -24 227 4 57 18
150 92 279 226 44 45 109 110 144 143 34 34 106 105 160 158 175 174 194 172
131 -18 -42 -126 -50 -161 -71 -318 -6 -44 -15 -88 -20 -97 -15 -27 -11 -51
20 -114 56 -114 168 -190 329 -223 70 -15 170 1 223 35 22 13 118 104 214 202
161 163 281 272 301 272 4 0 15 6 23 14 9 8 45 23 81 34 95 30 130 43 175 62
53 23 73 29 255 74 174 43 235 71 305 137 90 85 135 197 155 387 14 130 7 194
-32 302 -35 95 -41 153 -18 157 14 3 205 -175 282 -263 64 -72 71 -94 54 -166
-19 -85 -40 -333 -33 -405 3 -32 13 -89 22 -128 9 -38 21 -91 25 -116 14 -79
114 -232 182 -277 70 -47 132 -81 149 -81 9 -1 22 -7 28 -15 6 -7 33 -16 59
-19 26 -3 72 -13 102 -23 63 -19 207 -24 306 -11 38 4 89 8 114 7 41 -1 72 5
250 47 162 38 334 99 430 154 62 36 123 60 137 55 7 -3 13 -18 13 -33 0 -39
29 -170 49 -218 9 -22 46 -70 82 -107 58 -58 72 -67 115 -74 59 -9 149 13 244
59 55 26 95 61 265 234 110 111 211 207 225 213 14 5 32 14 40 19 8 6 42 22
75 36 114 51 150 68 177 81 14 8 33 14 42 14 8 0 30 6 48 14 18 8 69 24 113
36 44 12 84 26 89 31 6 5 21 9 35 9 15 1 58 12 96 26 165 59 179 59 210 -8 14
-31 48 -76 82 -109 73 -71 101 -89 135 -89 15 0 43 -7 61 -16 29 -14 42 -14
83 -4 27 6 72 15 99 20 127 22 244 110 301 228 95 199 141 377 153 602 6 105
-3 648 -14 870 -2 36 -6 137 -10 225 -4 88 -15 250 -25 360 -23 256 -20 265
61 175 47 -51 61 -62 71 -52 33 33 0 133 -142 426 -97 202 -119 215 -170 104
-37 -84 -49 -201 -25 -248 13 -25 17 -59 17 -149 0 -64 6 -208 14 -321 7 -113
16 -281 20 -375 3 -93 7 -172 9 -175 7 -11 16 -270 17 -450 0 -102 4 -210 9
-240 4 -30 10 -153 13 -273 4 -199 2 -223 -15 -262 -33 -75 -119 -123 -262
-145 -111 -17 -205 0 -259 48 -28 24 -22 38 41 106 66 71 114 162 161 306 41
129 46 179 25 275 -22 102 -45 152 -87 192 -70 68 -151 73 -231 16 -69 -50
-114 -128 -156 -268 -61 -201 -78 -287 -71 -353 10 -88 0 -106 -73 -127 -34
-9 -80 -23 -102 -29 -22 -7 -67 -21 -100 -31 -33 -9 -91 -30 -130 -46 -38 -15
-98 -37 -133 -48 -56 -18 -135 -54 -204 -93 -34 -20 -207 -151 -253 -193 -70
-63 -146 -139 -156 -157 -14 -26 -185 -151 -262 -193 -127 -68 -239 -48 -288
49 -17 35 -21 57 -18 112 5 78 20 106 82 144 67 43 221 201 245 253 79 168
112 393 76 516 -30 100 -56 176 -64 186 -14 17 -23 102 -12 109 6 3 24 -2 40
-11 26 -15 32 -15 47 -3 30 25 9 66 -95 194 -93 114 -162 186 -179 186 -23 0
-37 -28 -61 -118 -27 -106 -26 -128 10 -207 17 -37 30 -74 30 -83 0 -18 25
-98 47 -149 7 -17 13 -36 13 -43 0 -7 6 -24 13 -38 68 -136 117 -269 117 -320
0 -24 -9 -41 -34 -65 -47 -45 -97 -87 -145 -122 -23 -16 -60 -45 -82 -63 -23
-17 -45 -32 -50 -32 -6 0 -33 -15 -62 -33 -67 -43 -117 -66 -269 -123 -24 -9
-58 -22 -76 -30 -18 -8 -41 -14 -52 -14 -10 0 -21 -4 -25 -9 -3 -6 -27 -13
-53 -16 -26 -4 -67 -13 -92 -20 -110 -34 -235 -48 -420 -48 -195 0 -216 4
-368 62 -108 40 -210 122 -274 216 -37 56 -74 172 -93 293 -13 86 -13 108 -3
130 19 40 47 34 83 -18 17 -25 53 -76 79 -114 59 -84 75 -102 146 -153 73 -54
133 -83 169 -83 17 0 41 -5 55 -12 37 -16 217 16 268 48 21 13 41 24 44 24 4
0 26 15 48 34 38 31 106 145 106 176 0 6 6 21 12 33 12 21 23 67 48 202 6 33
16 83 21 110 17 81 -1 486 -30 687 -6 40 -15 134 -21 208 -6 74 -15 167 -20
205 -5 39 -14 122 -20 185 -6 63 -15 142 -20 175 -5 33 -11 107 -12 165 l-3
105 25 3 c19 2 31 -6 49 -32 24 -36 53 -52 71 -41 15 9 3 87 -23 150 -56 140
-203 439 -223 455 -21 18 -41 5 -49 -32 -4 -18 -12 -39 -18 -46 -6 -7 -14 -32
-18 -55 -30 -159 -30 -161 -15 -197 9 -22 17 -84 20 -165 5 -122 15 -237 37
-415 5 -41 13 -131 19 -200 5 -69 13 -132 17 -140 3 -8 9 -62 14 -120 4 -58
12 -139 18 -180 6 -41 13 -138 15 -215 2 -77 9 -165 15 -195 17 -91 35 -434
26 -495 -9 -58 -113 -107 -264 -126 -62 -8 -83 -6 -140 11 -83 26 -123 45
-182 85 -45 31 -70 57 -184 191 -121 143 -385 409 -510 514 -17 14 -82 70
-145 125 -63 55 -120 104 -127 110 -14 12 -16 13 -108 85 -57 44 -151 123
-221 185 -6 6 -22 17 -34 25 -13 8 -37 27 -54 41 -17 14 -89 70 -161 125 -71
54 -135 103 -141 109 -7 5 -54 44 -105 85 -156 126 -170 140 -167 169 2 17 14
30 38 42 19 9 82 40 140 68 58 28 109 51 114 51 5 0 32 11 60 24 106 49 145
66 158 66 7 0 22 7 32 15 11 8 29 15 41 15 12 0 25 4 30 8 6 5 42 19 80 31 39
12 84 29 100 36 17 7 50 19 75 25 25 7 79 25 120 41 138 51 260 80 528 123 51
9 97 18 102 21 4 3 65 5 135 6 120 0 129 -1 152 -23 14 -13 31 -35 39 -50 13
-25 12 -32 -5 -66 -10 -20 -62 -83 -115 -139 -54 -56 -107 -114 -119 -130 -12
-15 -58 -71 -102 -123 -76 -89 -105 -128 -131 -175 -68 -125 -84 -158 -84
-175 0 -36 28 -21 77 43 26 34 75 91 109 127 34 36 94 103 135 149 41 46 91
102 111 125 36 39 140 183 164 227 6 11 20 30 31 42 11 12 31 45 44 72 13 28
28 57 34 65 6 8 19 39 29 68 31 89 10 165 -62 226 -33 29 -36 30 -161 32 -69
1 -151 -2 -181 -7z m3741 -2336 c46 -49 69 -103 69 -158 0 -37 -6 -52 -35 -84
-34 -37 -146 -101 -178 -101 -27 0 -59 83 -77 200 -11 65 4 104 56 150 28 24
44 30 82 30 42 0 52 -4 83 -37z"/>
<path d="M855 3886 c-5 -2 -30 -9 -55 -17 -66 -19 -123 -61 -184 -137 -95
-118 -84 -157 28 -103 57 28 74 32 167 34 57 1 116 -1 132 -6 56 -15 23 -62
-69 -97 -33 -12 -81 -36 -109 -54 -27 -19 -61 -37 -75 -41 -34 -10 -60 -34
-60 -57 0 -31 61 -28 129 6 25 13 65 26 89 29 88 11 253 138 318 245 48 79 52
100 28 137 -26 40 -87 58 -214 61 -63 2 -119 2 -125 0z"/>
<path d="M6500 3825 c-25 -13 -61 -24 -80 -24 -20 -1 -62 -10 -95 -22 -87 -31
-155 -40 -295 -39 -119 0 -251 20 -274 41 -6 5 -24 9 -42 9 -26 0 -36 -7 -53
-36 -30 -50 -26 -77 17 -142 21 -32 47 -89 58 -126 33 -116 79 -112 94 9 11
90 25 103 87 86 58 -16 47 -16 158 -2 93 12 194 34 255 56 19 7 51 18 70 25
19 6 68 19 108 28 64 14 74 15 83 2 14 -22 3 -56 -42 -135 -24 -42 -43 -88
-46 -116 -10 -81 28 -72 71 16 62 127 106 252 106 299 0 38 -16 63 -50 81 -39
20 -76 17 -130 -10z"/>
<path d="M4991 3688 c-12 -40 -25 -87 -31 -104 -12 -38 -13 -148 -1 -172 12
-23 29 -141 41 -287 5 -66 14 -147 19 -180 5 -33 9 -96 10 -140 1 -118 10
-245 21 -290 5 -22 10 -83 10 -135 1 -52 5 -126 10 -165 16 -119 32 -277 35
-335 1 -30 10 -118 19 -195 9 -77 16 -169 16 -205 0 -36 4 -144 9 -240 5 -96
6 -226 1 -289 -8 -127 -5 -151 20 -151 24 0 34 15 54 85 10 33 24 78 31 100
25 79 36 139 46 263 13 155 0 524 -21 597 -4 17 -11 89 -13 160 -3 72 -10 158
-16 190 -10 58 -24 204 -40 410 -5 55 -13 127 -19 160 -13 68 -35 320 -36 410
-1 58 0 60 27 63 15 2 27 -1 27 -7 0 -6 14 -26 31 -46 37 -42 72 -44 77 -6 4
22 -51 176 -69 196 -5 5 -9 16 -9 25 0 17 -84 186 -104 210 -7 8 -27 41 -45
73 -28 48 -55 77 -74 77 -3 0 -14 -33 -26 -72z"/>
<path d="M7280 3649 c-79 -58 -155 -269 -116 -324 7 -11 39 -38 70 -60 31 -23
56 -48 56 -58 0 -26 -102 -143 -194 -220 -45 -38 -105 -90 -135 -115 -29 -26
-70 -58 -90 -72 -20 -14 -70 -52 -111 -86 -41 -33 -115 -88 -163 -122 -99 -68
-130 -101 -125 -134 5 -39 41 -33 118 19 40 26 79 53 88 58 9 6 75 49 147 98
240 161 394 288 449 370 19 29 53 72 74 97 l40 45 29 -27 c16 -16 38 -28 49
-28 55 0 58 66 8 158 -34 64 -35 67 -23 115 15 64 4 188 -21 237 -37 72 -93
90 -150 49z m73 -146 c19 -22 31 -84 22 -112 -16 -50 -125 3 -125 61 0 54 69
88 103 51z"/>
<path d="M8672 3638 c-5 -7 -17 -38 -26 -68 -9 -30 -22 -68 -28 -85 -19 -52
-21 -107 -9 -205 7 -52 16 -318 21 -590 5 -272 14 -544 20 -603 6 -62 9 -311
7 -585 -3 -454 -9 -579 -37 -692 -5 -19 -13 -60 -18 -90 -6 -30 -20 -88 -32
-129 -19 -66 -19 -76 -6 -89 27 -28 58 -1 108 93 75 139 107 256 139 500 33
258 30 967 -6 1579 -8 136 -13 251 -11 255 2 3 0 35 -4 71 -9 68 0 100 26 100
8 0 19 -10 24 -22 22 -53 66 -103 90 -103 23 0 25 5 28 47 2 27 -3 62 -11 80
-8 18 -32 76 -52 128 -62 157 -72 181 -119 280 -50 105 -86 149 -104 128z"/>
<path d="M6107 3503 c-8 -10 -19 -31 -23 -48 -4 -16 -11 -35 -16 -41 -13 -17
-39 -124 -32 -135 3 -5 14 -186 24 -402 11 -215 22 -412 26 -437 4 -25 8 -64
9 -88 9 -154 18 -248 30 -328 8 -49 17 -139 20 -200 3 -60 10 -161 15 -224 15
-186 13 -478 -5 -536 -15 -50 -20 -130 -9 -158 3 -9 14 -16 24 -16 22 0 60 45
60 70 0 9 11 48 25 86 49 139 64 236 71 475 5 151 3 267 -5 357 -7 73 -14 169
-16 215 -5 128 -24 338 -35 384 -6 23 -10 74 -10 113 0 39 -4 101 -9 138 -5
37 -15 106 -21 155 -13 94 -8 137 15 137 8 0 22 -12 32 -27 60 -97 113 -110
113 -26 0 23 -46 145 -90 238 -58 122 -100 219 -100 229 0 19 -50 86 -64 86
-7 0 -20 -8 -29 -17z"/>
<path d="M6803 3465 c-127 -253 -123 -242 -123 -335 0 -119 39 -172 105 -142
46 21 97 128 77 160 -7 10 -14 11 -35 1 -42 -19 -57 1 -57 73 0 49 8 77 40
149 22 49 40 98 40 109 0 32 -28 23 -47 -15z"/>
<path d="M4083 3068 c-5 -7 -18 -33 -27 -57 -9 -24 -24 -54 -32 -65 -8 -11
-14 -30 -14 -41 0 -12 -4 -25 -9 -30 -6 -6 -14 -28 -20 -50 -5 -22 -15 -58
-20 -80 -6 -22 -11 -57 -11 -78 0 -68 49 -146 91 -147 44 0 108 90 109 154 0
30 3 29 -59 10 -10 -3 -25 2 -35 12 -26 25 -16 99 27 219 39 105 47 165 23
165 -7 0 -18 -6 -23 -12z"/>
<path d="M2995 2947 c-36 -17 -60 -57 -51 -85 12 -35 117 -124 234 -197 127
-78 182 -125 182 -155 0 -34 -26 -34 -75 -1 -25 17 -48 31 -51 31 -10 0 -189
122 -192 131 -2 5 -10 9 -17 9 -8 0 -20 6 -27 13 -7 7 -31 24 -53 37 -46 29
-96 82 -110 119 -20 53 -39 71 -71 71 -39 0 -64 -33 -64 -85 0 -39 30 -76 101
-125 20 -14 49 -35 65 -47 76 -60 122 -92 154 -108 19 -10 79 -47 132 -82 147
-98 232 -122 301 -87 43 22 47 30 47 96 0 47 -5 62 -27 88 -24 29 -74 66 -129
96 -30 16 -149 105 -201 150 -51 43 -58 80 -18 90 37 9 74 -3 113 -38 28 -24
41 -29 66 -24 68 14 72 64 8 93 -51 22 -274 29 -317 10z"/>
<path d="M914 2903 c-4 -10 -13 -36 -20 -58 -24 -81 -66 -201 -79 -225 -7 -14
-18 -50 -24 -82 -10 -46 -9 -62 2 -91 29 -68 103 -95 169 -61 42 22 73 58 109
131 25 50 31 71 26 103 -6 49 -42 98 -101 140 -50 36 -58 56 -45 105 6 20 7
40 4 45 -10 16 -32 12 -41 -7z m69 -301 c48 -46 28 -92 -41 -92 -54 0 -93 81
-57 120 21 23 55 13 98 -28z"/>
<path d="M5566 2883 c-9 -10 -39 -48 -66 -85 -68 -92 -67 -129 8 -207 7 -8 20
-24 28 -36 8 -13 32 -35 54 -50 31 -21 42 -25 58 -16 31 17 90 90 117 146 21
41 23 56 16 83 -15 49 -46 95 -97 141 -51 45 -89 53 -118 24z"/>
<path d="M7654 2690 c-12 -5 -50 -40 -85 -79 -42 -48 -70 -71 -85 -71 -14 0
-45 22 -82 58 -32 31 -74 65 -93 76 -47 25 -66 14 -163 -92 -104 -112 -104
-117 16 -239 115 -116 127 -119 192 -35 53 70 110 122 133 122 9 0 52 -36 95
-80 44 -44 91 -83 104 -86 30 -8 72 22 117 84 20 26 45 56 56 66 15 14 21 31
21 60 0 36 -8 50 -63 114 -84 98 -119 120 -163 102z"/>
<path d="M4233 2408 c-38 -41 -73 -119 -73 -164 0 -48 -31 -154 -45 -154 -15
0 -46 34 -78 86 -35 57 -138 161 -171 174 -15 5 -40 10 -56 10 -24 0 -33 -7
-50 -40 -11 -21 -20 -59 -20 -82 0 -39 5 -49 49 -92 47 -47 51 -48 91 -42 37
6 43 4 70 -26 43 -47 97 -165 126 -275 2 -7 15 -13 28 -13 29 0 56 41 56 84 0
14 5 37 11 53 6 15 15 64 20 108 11 108 34 212 49 230 20 24 38 18 88 -30 25
-25 51 -45 58 -45 18 0 35 25 40 62 10 69 -79 188 -141 188 -11 0 -35 -15 -52
-32z"/>
<path d="M1225 2232 c-49 -34 -85 -100 -92 -169 -7 -63 8 -91 68 -128 42 -27
59 -57 51 -87 -6 -26 -117 -138 -197 -199 -38 -29 -72 -56 -75 -59 -3 -3 -27
-23 -54 -44 -26 -22 -62 -51 -78 -66 -16 -15 -42 -34 -56 -41 -15 -7 -53 -28
-85 -47 -53 -31 -58 -37 -55 -65 4 -41 28 -46 70 -15 18 13 45 30 60 38 237
132 396 256 490 382 53 73 70 80 115 51 24 -16 26 -16 40 3 20 26 11 95 -16
129 -19 25 -20 35 -14 130 7 118 3 142 -33 184 -34 41 -83 42 -139 3z m71
-110 c23 -15 35 -51 24 -72 -14 -26 -28 -25 -57 2 -22 21 -30 57 -16 71 8 9
35 9 49 -1z"/>
<path d="M6762 2118 c-10 -24 -28 -79 -40 -123 -11 -44 -26 -96 -32 -115 -27
-75 -42 -116 -54 -145 -63 -150 -73 -260 -27 -309 28 -29 91 -41 140 -25 85
27 171 152 171 251 0 66 -28 118 -90 162 -61 44 -68 58 -48 99 8 18 23 74 33
124 14 75 15 95 5 108 -21 25 -38 17 -58 -27z m9 -449 c54 -43 64 -64 45 -94
-19 -29 -77 -42 -111 -27 -40 19 -45 100 -9 137 22 21 31 19 75 -16z"/>
<path d="M2404 2103 c-9 -21 -29 -66 -45 -101 -16 -34 -29 -70 -29 -80 0 -10
-6 -24 -12 -31 -21 -20 -16 -140 8 -176 31 -49 56 -64 101 -65 38 0 43 3 49
28 4 15 18 44 31 64 12 21 23 44 23 52 0 21 -31 28 -50 11 -25 -23 -46 -18
-70 15 -26 36 -24 99 5 190 23 73 30 130 16 130 -6 0 -18 -17 -27 -37z"/>
<path d="M8094 621 c-69 -42 -128 -155 -71 -136 12 4 38 8 57 9 29 1 36 -3 38
-22 5 -31 -18 -64 -120 -172 -69 -72 -88 -98 -88 -121 0 -16 4 -29 9 -29 7 0
82 62 121 100 28 29 110 127 110 133 0 3 14 30 31 58 38 66 43 125 13 166 -26
34 -59 39 -100 14z"/>
<path d="M7142 584 c-19 -15 -38 -36 -43 -48 -5 -11 -13 -28 -17 -36 -26 -47
-42 -84 -42 -98 -1 -29 -39 -104 -50 -97 -6 4 -22 24 -35 44 -38 61 -132 157
-171 176 -35 16 -37 16 -63 -2 -33 -25 -60 -78 -61 -121 0 -48 70 -112 122
-112 44 0 67 -21 93 -83 9 -23 23 -53 30 -67 7 -14 15 -38 19 -53 6 -24 11
-28 34 -25 20 2 33 14 49 43 38 68 63 127 63 144 0 17 18 77 47 159 19 54 41
55 83 2 54 -68 90 -45 90 58 0 59 -16 90 -59 119 -43 29 -49 29 -89 -3z"/>
<path d="M3016 566 c-14 -12 -26 -27 -26 -32 0 -16 -97 -104 -114 -104 -8 0
-43 29 -79 64 -64 65 -102 85 -130 69 -15 -8 -87 -88 -134 -149 -32 -40 -30
-89 5 -119 148 -126 159 -133 207 -121 15 4 45 32 73 68 73 96 79 100 105 87
12 -6 34 -24 48 -39 46 -49 120 -100 145 -100 34 0 49 10 111 67 89 83 91 131
7 199 -26 22 -67 56 -90 77 -58 52 -95 62 -128 33z"/>
</g>
</svg>
